<svg id="Layer_1" data-name="Layer 1" xmlns="http://www.w3.org/2000/svg" viewBox="0 0 18.5 13.12"><defs><style>.cls-1{fill:#414146;}</style></defs><path id="youtube" class="cls-1" d="M18.11,1.88V2A2.34,2.34,0,0,0,16.53.41h0A53.37,53.37,0,0,0,9.27,0,55.17,55.17,0,0,0,2,.4,2.36,2.36,0,0,0,.41,2h0a26,26,0,0,0,0,9.22v-.15A2.36,2.36,0,0,0,2,12.73H2a55,55,0,0,0,7.25.39,55,55,0,0,0,7.25-.39,2.36,2.36,0,0,0,1.61-1.62h0a23.64,23.64,0,0,0,.38-4.36V6.39a24.41,24.41,0,0,0-.41-4.51ZM7.41,9.38V3.76l4.84,2.82Z" transform="translate(0.01 -0.01)"/></svg>