<svg id="Layer_1" data-name="Layer 1" xmlns="http://www.w3.org/2000/svg" viewBox="0 0 100.23 8.29"><defs><style>.cls-1{fill:#141414;fill-rule:evenodd;}</style></defs><g id="Logo"><path id="Path_120" data-name="Path 120" class="cls-1" d="M6,1.38,8.66,6.24s2.52-4.62,2.64-4.86H9.72V.17h5.45V1.38H13.36L9.75,8.06H5.49S1.81,1.38,1.81,1.38H0V.17H7.91V1.38Z" transform="translate(0 0)"/><path id="Path_121" data-name="Path 121" class="cls-1" d="M70,1.38l2.67,4.86s2.51-4.62,2.63-4.86H73.72V.17h5.45V1.38h-1.8c-.09.15-3.6,6.67-3.62,6.68H69.49s-3.67-6.68-3.67-6.68H64V.17h7.92V1.38Z" transform="translate(0 0)"/><path id="Path_122" data-name="Path 122" class="cls-1" d="M51.16,6.83a2.44,2.44,0,0,0,1.22-.22,2.58,2.58,0,0,0,.6-.44,2.51,2.51,0,0,0,.77-1.77H55V8.05H44V6.83h1.84V1.37H44V.16h7.3V1.37H49.48V6.83Z" transform="translate(0 0)"/><path id="Path_123" data-name="Path 123" class="cls-1" d="M29.56,7c1.38,0,2-1.47,2-2.9s-.63-2.87-1.88-2.89-2,1.3-2,2.82.56,2.95,1.9,3ZM24,4.12C24,1.83,25.94,0,29.61,0s5.62,1.83,5.62,4.12S33.38,8.3,29.63,8.3,24,6.44,24,4.12Z" transform="translate(0 0)"/><path id="Path_124" data-name="Path 124" class="cls-1" d="M94.56,7c1.38,0,2-1.47,2-2.9s-.63-2.87-1.88-2.89-2,1.3-2,2.82.56,2.95,1.9,3ZM89,4.12C89,1.83,91,0,94.61,0s5.62,1.83,5.62,4.12S98.38,8.3,94.63,8.3,89,6.44,89,4.12Z" transform="translate(0 0)"/></g></svg>